
        <svg xmlns="http://www.w3.org/2000/svg" xmlns:xlink="http://www.w3.org/1999/xlink" version="1.1" width="3171.4285714285716" 
        height="1756.628799848275" viewBox="0 0 3171.4285714285716 1756.628799848275">
			<rect fill="#ffffff" width="3171.4285714285716" height="1756.628799848275"/>
			<g transform="scale(8.571428571428571) translate(10, 10)">
				<defs id="SvgjsDefs1916"></defs><g id="SvgjsG1917" featureKey="rZF8Vg-0" transform="matrix(1.5555555555555556,0,0,1.5555555555555556,97.22222222222223,-39.34466552734375)" fill="#0892b2"><path xmlns="http://www.w3.org/2000/svg" d="M38.481,69.952l-1.83,3.17H63.35l-1.83-3.17H38.481 M63.35,26.878H36.651l1.83,3.17h23.038L63.35,26.878   M40.311,33.218L30.622,50l9.689,16.782h19.378L69.378,50l-9.689-16.782H40.311 M35.736,74.707L21.471,50l14.264-24.707h28.529  L78.529,50L64.265,74.707H35.736" style="fill-rule: evenodd; clip-rule: evenodd;"></path><polyline xmlns="http://www.w3.org/2000/svg" points="77.614,35.736 82.189,27.811 95,50 82.189,72.189 77.614,64.264 85.85,50 77.614,35.736 " style="fill-rule: evenodd; clip-rule: evenodd;"></polyline><polyline xmlns="http://www.w3.org/2000/svg" points="17.811,72.189 5,50 17.811,27.811 22.386,35.736 14.151,50 22.386,64.264 17.811,72.189 " style="fill-rule: evenodd; clip-rule: evenodd;"></polyline></g><g id="SvgjsG1918" featureKey="6VBqdG-0" transform="matrix(3.4286828115629553,0,0,3.4286828115629553,3.771550765734577,76.90791826646253)" fill="#111111"><path d="M3.76 5.859999999999999 l0 1.88 l-2.16 0 l0 -1.88 l2.16 0 z M3.76 9.6 l0 11.5 c0 2.12 -1.12 3.02 -2.82 3.02 c-0.98 0 -1.56 -0.22 -2.04 -0.52 l0 -2.1 c0.48 0.26 0.94 0.42 1.56 0.42 c0.92 0 1.14 -0.68 1.14 -1.4 l0 -10.92 l2.16 0 z M10.74 9.42 c1.88 0 3.12 1.12 3.38 1.8 l0 -1.62 l2.16 0 l0 10.4 l-2.16 0 l0 -1.72 c-0.26 0.84 -1.5 1.92 -3.38 1.92 c-2.36 0 -5.18 -1.76 -5.18 -5.4 c0 -3.58 2.82 -5.38 5.18 -5.38 z M11.02 11.34 c-1.62 0 -3.36 1.16 -3.36 3.46 c0 2.32 1.74 3.48 3.36 3.48 s3.2 -1.14 3.2 -3.48 c0 -2.32 -1.58 -3.46 -3.2 -3.46 z M23.5 12.379999999999999 c-0.36 -0.8 -0.94 -1.22 -1.72 -1.22 c-0.8 0 -1.4 0.48 -1.4 1.14 c0 0.6 0.34 1.02 1.18 1.32 l1.14 0.4 c1.64 0.58 3 1.2 3 3.1 c0 2.02 -1.98 3.1 -3.9 3.1 c-1.84 0 -3.52 -1.06 -3.92 -2.84 l1.72 -0.52 c0.3 0.94 1.08 1.62 2.2 1.62 c0.92 0 1.76 -0.54 1.76 -1.36 c0 -0.66 -0.46 -1.06 -1.34 -1.38 l-1.18 -0.42 c-1.92 -0.68 -2.76 -1.72 -2.76 -3.04 c0 -1.74 1.56 -2.86 3.42 -2.86 c1.8 0 3.04 0.98 3.6 2.46 z M32.379999999999995 9.42 c2.36 0 5.56 1.8 5.06 6.16 l-8.28 0 c0.32 1.86 1.8 2.78 3.48 2.78 c1.38 0 2.12 -0.36 2.88 -0.96 l1.22 1.16 c-0.92 1.04 -2.24 1.64 -4.16 1.64 c-2.64 0 -5.58 -1.8 -5.58 -5.38 c0 -3.6 3.02 -5.4 5.38 -5.4 z M32.379999999999995 11.28 c-1.34 0 -2.84 0.9 -3.2 2.72 l6.36 0 c-0.24 -1.82 -1.82 -2.72 -3.16 -2.72 z M45.019999999999996 9.44 c2 0 3.96 1.3 3.96 4.54 l0 6.02 l-2.16 0 l0 -5.9 c0 -1.98 -0.94 -2.76 -2.28 -2.76 c-1.72 0 -2.84 1.6 -3.08 2.62 l0 6.04 l-2.16 0 l0 -10.4 l2.16 0 l0 2.2 c0.2 -0.64 1.4 -2.36 3.56 -2.36 z M55.959999999999994 9.42 c1.88 0 3.5 0.84 4.44 2.52 l-1.68 0.76 c-0.62 -0.84 -1.46 -1.36 -2.74 -1.36 c-1.54 0 -3.3 1.16 -3.3 3.48 c0 2.3 1.76 3.44 3.3 3.44 c1.28 0 2.12 -0.5 2.74 -1.34 l1.7 0.76 c-0.96 1.68 -2.56 2.5 -4.46 2.5 c-2.36 0 -5.38 -1.74 -5.38 -5.36 c0 -3.6 3.02 -5.4 5.38 -5.4 z M62.98 20.1 c-0.76 0 -1.26 -0.5 -1.26 -1.26 s0.5 -1.26 1.26 -1.26 s1.26 0.5 1.26 1.26 s-0.5 1.26 -1.26 1.26 z M74.2 5.859999999999999 l2.16 0 l0 5.8 l0 8.34 l-2.16 0 l0 -1.72 c-0.26 0.84 -1.5 1.92 -3.38 1.92 c-2.36 0 -5.18 -1.76 -5.18 -5.4 c0 -3.58 2.82 -5.38 5.18 -5.38 c1.88 0 3.12 1.12 3.38 1.8 l0 -5.36 z M71.1 18.28 c1.62 0 3.2 -1.14 3.2 -3.48 c0 -2.32 -1.58 -3.46 -3.2 -3.46 s-3.36 1.16 -3.36 3.46 c0 2.32 1.74 3.48 3.36 3.48 z M83.53999999999999 9.42 c2.36 0 5.56 1.8 5.06 6.16 l-8.28 0 c0.32 1.86 1.8 2.78 3.48 2.78 c1.38 0 2.12 -0.36 2.88 -0.96 l1.22 1.16 c-0.92 1.04 -2.24 1.64 -4.16 1.64 c-2.64 0 -5.58 -1.8 -5.58 -5.38 c0 -3.6 3.02 -5.4 5.38 -5.4 z M83.53999999999999 11.28 c-1.34 0 -2.84 0.9 -3.2 2.72 l6.36 0 c-0.24 -1.82 -1.82 -2.72 -3.16 -2.72 z M100.98 9.58 l-4.64 10.42 l-1.84 0 l-4.64 -10.42 l2.16 0 l3.4 7.72 l3.4 -7.72 l2.16 0 z"></path></g><g id="SvgjsG1919" featureKey="rMoqOW-0" transform="matrix(1.0275121518680816,0,0,1.0275121518680816,51.76698487880673,164.08153074997293)" fill="#0892b2"><path d="M9.92 8.38 l-6.02 0 l0 3.46 l4.96 0 l0 2.24 l-4.96 0 l0 5.92 l-2.7 0 l0 -14 l8.72 0 l0 2.38 z M33.7 6 l2.62 0 l0 8.92 c0 3.4 -2.42 5.38 -5.32 5.38 c-2.92 0 -5.34 -1.98 -5.34 -5.38 l0 -8.92 l2.62 0 l0 8.92 c0 2.2 1.4 2.92 2.72 2.92 s2.7 -0.72 2.7 -2.92 l0 -8.92 z M55.18 17.58 l5.68 0 l0 2.42 l-8.3 0 l0 -14 l2.62 0 l0 11.58 z M79.32 17.58 l5.68 0 l0 2.42 l-8.3 0 l0 -14 l2.62 0 l0 11.58 z M125.2 5.76 c2.38 0 3.96 1.52 4.66 2.9 l-1.94 1.14 c-0.74 -1.1 -1.54 -1.72 -2.72 -1.72 c-1.12 0 -1.92 0.66 -1.92 1.56 c0 0.86 0.52 1.36 1.72 1.8 l0.96 0.36 c2.98 1.06 4.28 2.36 4.28 4.36 c0 2.72 -2.58 4.14 -4.96 4.14 c-2.5 0 -4.46 -1.48 -5.1 -3.44 l2.02 -1.06 c0.5 1.12 1.44 2.12 3.08 2.12 c1.24 0 2.24 -0.6 2.24 -1.72 c0 -1.14 -0.72 -1.64 -2.28 -2.22 l-0.9 -0.32 c-2.08 -0.76 -3.66 -1.8 -3.66 -4.12 c0 -2.2 2.02 -3.78 4.52 -3.78 z M154.78 6 l0 2.42 l-3.6 0 l0 11.58 l-2.62 0 l0 -11.58 l-3.58 0 l0 -2.42 l9.8 0 z M181.84 20 l-1.16 -2.7 l-6.92 0 l-1.16 2.7 l-2.78 0 l6.24 -14 l2.34 0 l6.22 14 l-2.78 0 z M174.68 15.16 l5.08 0 l-2.54 -5.92 z M211.78 18.5 c-1.26 1.1 -2.9 1.7 -4.76 1.7 c-3.84 0 -7.26 -2.96 -7.26 -7.2 s3.42 -7.2 7.26 -7.2 c1.84 0 3.46 0.6 4.68 1.66 l-1.58 1.8 c-0.8 -0.6 -1.86 -1 -2.94 -1 c-2.6 0 -4.7 1.98 -4.7 4.74 s2.1 4.74 4.7 4.74 c1.1 0 2.2 -0.42 3.02 -1.08 z M236.60000000000002 20 l-4.6 -6.1 l-1.78 2 l0 4.1 l-2.7 0 l0 -14 l2.7 0 l0 6.4 l5.56 -6.4 l3.24 0 l-5.38 6.06 l6 7.94 l-3.04 0 z"></path></g>
			</g>
		</svg>
	